{
  "accessors": [
    {
      "bufferView": 2,
      "componentType": 5126,
      "count": 1933,
      "max": [
        18.06220054626465,
        37.63600158691406,
        57.53799819946289
      ],
      "min": [
        -12.446700096130371,
        30.13599967956543,
        11.71090030670166
      ],
      "type": "VEC3"
    },
    {
      "bufferView": 2,
      "byteOffset": 23196,
      "componentType": 5126,
      "count": 1933,
      "max": [
        0.9979101419448853,
        1.0,
        0.9998537302017212
      ],
      "min": [
        -0.9979101419448853,
        -1.0,
        -0.9974905848503113
      ],
      "type": "VEC3"
    },
    {
      "bufferView": 3,
      "componentType": 5126,
      "count": 1933,
      "max": [
        1.0,
        0.9979336261749268,
        0.9997952580451965,
        1.0
      ],
      "min": [
        -0.9665442109107971,
        -0.9978472590446472,
        -0.9979947209358215,
        -1.0
      ],
      "type": "VEC4"
    },
    {
      "bufferView": 1,
      "componentType": 5126,
      "count": 1933,
      "max": [
        0.9954848289489746,
        0.998046875
      ],
      "min": [
        0.001953125,
        0.001953125
      ],
      "type": "VEC2"
    },
    {
      "bufferView": 0,
      "componentType": 5125,
      "count": 9924,
      "type": "SCALAR"
    },
    {
      "bufferView": 2,
      "byteOffset": 46392,
      "componentType": 5126,
      "count": 4716,
      "max": [
        25.06049919128418,
        41.82059860229492,
        69.21820068359375
      ],
      "min": [
        -22.725799560546875,
        21.4768009185791,
        -2.845599889755249
      ],
      "type": "VEC3"
    },
    {
      "bufferView": 2,
      "byteOffset": 102984,
      "componentType": 5126,
      "count": 4716,
      "max": [
        1.0,
        0.999985933303833,
        0.9999879598617554
      ],
      "min": [
        -1.0,
        -1.0,
        -0.9999879598617554
      ],
      "type": "VEC3"
    },
    {
      "bufferView": 3,
      "byteOffset": 30928,
      "componentType": 5126,
      "count": 4716,
      "max": [
        0.9999319911003113,
        0.9999952912330627,
        0.9999841451644897,
        1.0
      ],
      "min": [
        -0.9999995827674866,
        -0.9999738931655884,
        -0.9999995231628418,
        -1.0
      ],
      "type": "VEC4"
    },
    {
      "bufferView": 1,
      "byteOffset": 15464,
      "componentType": 5126,
      "count": 4716,
      "max": [
        1.9917099475860596,
        0.9926379919052124
      ],
      "min": [
        1.014083981513977,
        0.001953125
      ],
      "type": "VEC2"
    },
    {
      "bufferView": 0,
      "byteOffset": 39696,
      "componentType": 5125,
      "count": 21462,
      "type": "SCALAR"
    }
  ],
  "asset": {
    "extras": {
      "author": "candelasoriano (https://sketchfab.com/candelasoriano)",
      "license": "CC-BY-4.0 (http://creativecommons.org/licenses/by/4.0/)",
      "source": "https://sketchfab.com/3d-models/cyberpunk-atm-from-stray-e1fbc7943362485489dba5a951ebc4b1",
      "title": "Cyberpunk ATM from Stray"
    },
    "generator": "Sketchfab-15.53.0",
    "version": "2.0"
  },
  "bufferViews": [
    {
      "buffer": 0,
      "byteLength": 125544,
      "name": "floatBufferViews",
      "target": 34963
    },
    {
      "buffer": 0,
      "byteLength": 53192,
      "byteOffset": 125544,
      "byteStride": 8,
      "name": "floatBufferViews",
      "target": 34962
    },
    {
      "buffer": 0,
      "byteLength": 159576,
      "byteOffset": 178736,
      "byteStride": 12,
      "name": "floatBufferViews",
      "target": 34962
    },
    {
      "buffer": 0,
      "byteLength": 106384,
      "byteOffset": 338312,
      "byteStride": 16,
      "name": "floatBufferViews",
      "target": 34962
    }
  ],
  "buffers": [
    {
      "byteLength": 444696,
      "uri": "scene.bin"
    }
  ],
  "extensionsUsed": [
    "KHR_materials_specular"
  ],
  "images": [
    {
      "uri": "textures/amarillo_baseColor.jpeg"
    },
    {
      "uri": "textures/amarillo_metallicRoughness.png"
    },
    {
      "uri": "textures/amarillo_emissive.jpeg"
    },
    {
      "uri": "textures/amarillo_normal.png"
    },
    {
      "uri": "textures/rosa_baseColor.png"
    },
    {
      "uri": "textures/rosa_metallicRoughness.png"
    },
    {
      "uri": "textures/rosa_emissive.jpeg"
    },
    {
      "uri": "textures/rosa_normal.png"
    }
  ],
  "materials": [
    {
      "doubleSided": true,
      "emissiveFactor": [
        1.0,
        1.0,
        1.0
      ],
      "emissiveTexture": {
        "index": 2
      },
      "extensions": {
        "KHR_materials_specular": {
          "specularColorFactor": [
            1.0,
            1.0,
            1.0
          ],
          "specularFactor": 0.3276200460801404
        }
      },
      "name": "amarillo",
      "normalTexture": {
        "index": 3
      },
      "pbrMetallicRoughness": {
        "baseColorTexture": {
          "index": 0
        },
        "metallicRoughnessTexture": {
          "index": 1
        }
      }
    },
    {
      "alphaMode": "BLEND",
      "doubleSided": true,
      "emissiveFactor": [
        1.0,
        1.0,
        1.0
      ],
      "emissiveTexture": {
        "index": 6
      },
      "extensions": {
        "KHR_materials_specular": {
          "specularColorFactor": [
            1.0,
            1.0,
            1.0
          ],
          "specularFactor": 0.18742914264119662
        }
      },
      "name": "rosa",
      "normalTexture": {
        "index": 7
      },
      "pbrMetallicRoughness": {
        "baseColorTexture": {
          "index": 4
        },
        "metallicRoughnessTexture": {
          "index": 5
        }
      }
    }
  ],
  "meshes": [
    {
      "name": "Object_0",
      "primitives": [
        {
          "attributes": {
            "NORMAL": 1,
            "POSITION": 0,
            "TANGENT": 2,
            "TEXCOORD_0": 3
          },
          "indices": 4,
          "material": 0,
          "mode": 4
        }
      ]
    },
    {
      "name": "Object_1",
      "primitives": [
        {
          "attributes": {
            "NORMAL": 6,
            "POSITION": 5,
            "TANGENT": 7,
            "TEXCOORD_0": 8
          },
          "indices": 9,
          "material": 1,
          "mode": 4
        }
      ]
    }
  ],
  "nodes": [
    {
      "children": [
        1
      ],
      "matrix": [
        1.0,
        0.0,
        0.0,
        0.0,
        0.0,
        2.220446049250313e-16,
        -1.0,
        0.0,
        0.0,
        1.0,
        2.220446049250313e-16,
        0.0,
        0.0,
        0.0,
        0.0,
        1.0
      ],
      "name": "Sketchfab_model"
    },
    {
      "children": [
        2,
        3
      ],
      "name": "model.obj.cleaner.materialmerger.gles"
    },
    {
      "mesh": 0,
      "name": "Object_2"
    },
    {
      "mesh": 1,
      "name": "Object_3"
    }
  ],
  "samplers": [
    {
      "magFilter": 9729,
      "minFilter": 9987,
      "wrapS": 10497,
      "wrapT": 10497
    }
  ],
  "scene": 0,
  "scenes": [
    {
      "name": "Sketchfab_Scene",
      "nodes": [
        0
      ]
    }
  ],
  "textures": [
    {
      "sampler": 0,
      "source": 0
    },
    {
      "sampler": 0,
      "source": 1
    },
    {
      "sampler": 0,
      "source": 2
    },
    {
      "sampler": 0,
      "source": 3
    },
    {
      "sampler": 0,
      "source": 4
    },
    {
      "sampler": 0,
      "source": 5
    },
    {
      "sampler": 0,
      "source": 6
    },
    {
      "sampler": 0,
      "source": 7
    }
  ]
}
